<svg width="522" height="401" viewBox="0 0 522 401" fill="none" xmlns="http://www.w3.org/2000/svg">
<circle cx="261" cy="200" r="29" stroke="#E10538" stroke-width="14"/>
<path d="M276 176.5L504.5 124L512 165.5L355.5 233.5L286.5 217.5" stroke="#E10538" stroke-width="17"/>
<path d="M356 159C320 68 206.5 107.5 248.31 97.5663" stroke="#E10538" stroke-width="17"/>
<path d="M405.227 146.617C338.897 -2.1862 152.127 71.2829 221.243 51.8944" stroke="#E10538" stroke-width="17"/>
<path d="M448.38 132.075C362.147 -57.8726 118.813 36.1419 208.853 11.3105" stroke="#E10538" stroke-width="17"/>
<circle cx="163" cy="28" r="9" fill="#E10538"/>
<path d="M246 225L17.5 277.5L10 236L166.5 168L235.5 184" stroke="#E10538" stroke-width="17"/>
<path d="M166 242.5C202 333.5 315.5 294 273.69 303.934" stroke="#E10538" stroke-width="17"/>
<path d="M116.773 254.883C183.103 403.686 369.873 330.217 300.757 349.606" stroke="#E10538" stroke-width="17"/>
<path d="M73.6201 269.425C159.853 459.373 403.187 365.358 313.147 390.189" stroke="#E10538" stroke-width="17"/>
<circle cx="359" cy="373.5" r="9" transform="rotate(-180 359 373.5)" fill="#E10538"/>
</svg>
